<?xml version="1.0" standalone="no"?>
<!DOCTYPE svg PUBLIC "-//W3C//DTD SVG 20010904//EN"
 "http://www.w3.org/TR/2001/REC-SVG-20010904/DTD/svg10.dtd">
<svg version="1.0" xmlns="http://www.w3.org/2000/svg"
 width="250.000000pt" height="250.000000pt" viewBox="0 0 250.000000 250.000000"
 preserveAspectRatio="xMidYMid meet">

<g transform="translate(0.000000,250.000000) scale(0.100000,-0.100000)"
fill="#000000" stroke="none">
<path d="M1370 1580 c-119 -22 -185 -127 -159 -253 14 -65 73 -128 137 -148
92 -27 205 22 243 105 22 49 25 133 5 179 -36 85 -131 135 -226 117z m112
-110 c26 -32 37 -84 28 -127 -25 -107 -166 -112 -200 -7 -20 60 5 134 54 155
34 14 99 3 118 -21z"/>
<path d="M488 1574 c-22 -7 -22 -13 1 -41 17 -20 28 -23 99 -23 91 0 128 -10
136 -38 14 -43 -9 -61 -86 -71 l-48 -6 71 -107 c70 -105 73 -108 109 -108 31
0 41 6 64 38 l26 37 -50 3 c-47 3 -52 6 -77 45 -20 32 -23 42 -12 46 8 2 29
19 47 37 55 55 38 140 -36 171 -34 14 -212 26 -244 17z"/>
<path d="M1637 1573 c-4 -3 -7 -93 -7 -200 l0 -193 51 0 50 0 -3 120 c-2 66
-1 120 2 120 3 0 40 -54 83 -120 l78 -120 45 0 44 0 0 200 0 200 -45 0 -44 0
-3 -122 -3 -121 -80 121 -80 122 -41 0 c-22 0 -44 -3 -47 -7z"/>
<path d="M802 1540 l22 -30 121 0 c104 0 124 3 137 18 37 42 37 42 -137 42
l-166 0 23 -30z"/>
<path d="M812 1390 c-12 -16 -22 -32 -22 -35 0 -3 30 -5 68 -5 65 0 68 1 95
35 l28 35 -74 0 c-70 0 -74 -1 -95 -30z"/>
<path d="M1030 1390 l0 -31 62 3 c59 3 61 4 62 31 2 27 1 27 -61 27 l-63 0 0
-30z"/>
<path d="M450 1010 c0 -22 5 -40 10 -40 6 0 10 7 10 17 0 14 2 14 20 -2 22
-20 37 -15 24 7 -5 7 -7 23 -5 36 2 19 -2 22 -28 22 -29 0 -31 -2 -31 -40z
m40 20 c0 -5 -4 -10 -10 -10 -5 0 -10 5 -10 10 0 6 5 10 10 10 6 0 10 -4 10
-10z"/>
<path d="M532 1013 c3 -33 7 -38 31 -41 15 -2 27 1 27 7 0 6 -9 11 -20 11 -27
0 -25 18 3 23 l22 4 -22 2 c-13 0 -23 5 -23 10 0 5 10 12 23 14 15 3 12 5 -11
6 -32 1 -33 0 -30 -36z"/>
<path d="M611 1014 c-13 -37 -7 -60 9 -34 8 12 13 13 30 2 23 -14 27 -1 10 42
-13 36 -34 32 -49 -10z"/>
<path d="M690 1010 c0 -36 3 -40 24 -40 14 0 28 5 31 10 3 6 -3 10 -14 10 -17
0 -21 6 -21 30 0 17 -4 30 -10 30 -5 0 -10 -18 -10 -40z"/>
<path d="M792 1013 c3 -33 7 -38 31 -41 32 -4 37 15 5 21 -23 4 -23 4 2 15 18
8 20 11 8 11 -10 1 -18 5 -18 10 0 5 8 12 18 14 9 3 2 5 -16 6 -32 1 -33 0
-30 -36z"/>
<path d="M866 1035 c-3 -9 5 -20 22 -29 l27 -15 -29 -1 c-22 0 -27 -3 -19 -11
16 -16 63 -3 63 17 0 9 -9 18 -20 21 -11 3 -20 10 -20 15 0 5 9 6 20 3 11 -4
20 -2 20 4 0 17 -57 13 -64 -4z"/>
<path d="M948 1043 c6 -2 12 -20 12 -39 0 -19 5 -34 10 -34 6 0 10 15 10 34 0
24 5 36 18 39 9 3 -1 5 -23 5 -22 0 -34 -2 -27 -5z"/>
<path d="M1024 1014 c-15 -36 -11 -61 6 -34 8 12 13 13 29 3 27 -17 31 -5 15
35 -18 42 -31 41 -50 -4z m36 2 c0 -3 -4 -8 -10 -11 -5 -3 -10 -1 -10 4 0 6 5
11 10 11 6 0 10 -2 10 -4z"/>
<path d="M1103 1039 c10 -6 17 -22 17 -40 0 -18 4 -28 10 -24 6 3 10 19 10 35
0 15 6 31 13 33 6 3 -6 6 -28 6 -32 0 -36 -2 -22 -10z"/>
<path d="M1172 1013 c3 -33 7 -38 31 -41 32 -4 37 15 5 21 -23 4 -23 4 2 15
18 8 20 11 8 11 -10 1 -18 5 -18 10 0 5 8 12 18 14 9 3 2 5 -16 6 -32 1 -33 0
-30 -36z"/>
<path d="M1291 1019 c-15 -44 -14 -51 8 -37 15 9 23 9 35 -1 19 -16 20 -6 5
38 -6 17 -17 31 -24 31 -7 0 -18 -14 -24 -31z"/>
<path d="M1370 1010 c0 -36 3 -40 25 -40 14 0 25 5 25 10 0 6 -7 10 -15 10
-10 0 -15 10 -15 30 0 17 -4 30 -10 30 -5 0 -10 -18 -10 -40z"/>
<path d="M1434 1033 c2 -10 7 -28 11 -40 8 -29 23 -29 34 -1 l8 23 7 -23 c7
-22 21 -29 29 -14 12 19 18 72 8 72 -5 0 -12 -10 -14 -22 l-4 -23 -8 23 c-9
28 -23 28 -34 0 l-8 -23 -7 23 c-9 26 -30 30 -22 5z"/>
<path d="M1564 1014 c-15 -36 -11 -61 6 -34 8 12 13 13 29 3 27 -17 31 -5 15
35 -18 42 -31 41 -50 -4z m36 2 c0 -3 -4 -8 -10 -11 -5 -3 -10 -1 -10 4 0 6 5
11 10 11 6 0 10 -2 10 -4z"/>
<path d="M1645 1033 c4 -10 10 -28 12 -40 7 -33 16 -28 30 14 12 41 8 57 -8
33 -8 -11 -12 -12 -16 -2 -2 6 -9 12 -15 12 -6 0 -7 -7 -3 -17z"/>
<path d="M1720 1032 c0 -11 10 -24 23 -30 l22 -11 -24 0 c-18 -1 -22 -4 -14
-12 15 -15 53 -2 53 18 0 8 -9 17 -20 20 -11 3 -20 10 -20 15 0 6 9 8 20 5 11
-3 20 -1 20 4 0 5 -13 9 -30 9 -23 0 -30 -5 -30 -18z"/>
<path d="M1837 1043 c-12 -12 -7 -50 8 -63 35 -29 85 26 53 58 -13 13 -50 16
-61 5z m48 -29 c0 -10 -8 -20 -17 -22 -18 -3 -26 27 -11 42 12 11 28 0 28 -20z"/>
<path d="M1920 1016 c0 -19 5 -38 10 -41 6 -4 10 6 10 22 l0 28 25 -30 c13
-16 25 -28 26 -25 6 21 5 72 -2 76 -5 3 -9 -2 -9 -10 0 -20 -16 -21 -24 -1
-11 30 -36 17 -36 -19z"/>
</g>
</svg>
